<svg version="1.0" xmlns="http://www.w3.org/2000/svg"
 width="3000.000000pt" height="1013.000000pt" viewBox="0 0 3000.000000 1013.000000"
 preserveAspectRatio="xMidYMid meet">

<g transform="translate(0.000000,1013.000000) scale(0.100000,-0.100000)"
fill="#fff" stroke="none">
<path d="M7564 10024 c-57 -20 -114 -72 -149 -135 l-30 -54 -3 -625 c-2 -434
0 -641 8 -677 23 -104 78 -160 290 -289 395 -239 880 -418 1319 -486 197 -30
634 -33 806 -5 496 81 954 252 1375 514 201 125 260 199 260 328 0 143 -58
208 -330 369 -354 211 -735 359 -1116 435 -259 51 -422 65 -666 58 -426 -13
-824 -111 -1263 -310 -71 -33 -102 -42 -107 -34 -4 6 -7 169 -7 361 l0 350
-31 62 c-31 63 -85 113 -153 142 -38 16 -152 14 -203 -4z"/>
<path d="M6652 8453 c-174 -173 -284 -348 -358 -570 -60 -177 -65 -218 -73
-583 -7 -254 -13 -354 -26 -415 -62 -291 -199 -552 -403 -767 -48 -50 -161
-155 -252 -233 -304 -261 -497 -514 -680 -890 -183 -378 -293 -767 -356 -1265
-21 -170 -30 -698 -15 -900 109 -1450 877 -2572 1844 -2691 113 -14 334 -6
437 16 155 33 308 90 445 167 114 64 291 197 377 282 37 36 69 66 73 66 4 0
44 -34 90 -77 396 -362 818 -510 1275 -448 184 24 346 81 533 184 137 76 255
169 398 311 467 465 769 1176 876 2060 25 207 25 773 -1 985 -85 726 -301
1320 -651 1791 -109 147 -246 288 -431 445 -261 220 -408 407 -520 663 -65
147 -114 357 -114 491 0 33 -4 65 -8 71 -4 6 -56 16 -117 23 -452 51 -988 225
-1435 466 -269 145 -444 267 -546 378 -112 123 -197 315 -212 475 -4 44 -12
77 -19 79 -6 2 -65 -49 -131 -114z m1134 -3684 c139 -59 413 -322 552 -529
150 -225 210 -422 199 -658 -15 -330 -211 -662 -567 -958 -122 -101 -171 -132
-237 -149 -134 -34 -254 27 -481 249 -162 157 -267 300 -353 481 -80 168 -94
231 -93 430 0 156 3 178 28 260 63 208 177 392 364 586 161 168 319 288 405
310 45 11 131 1 183 -22z"/>
<path d="M7599 4058 c-119 -135 -172 -223 -204 -333 -43 -147 25 -322 201
-513 l67 -73 54 53 c112 110 198 249 229 369 14 54 15 74 5 130 -12 67 -57
166 -110 242 -40 59 -160 187 -175 187 -7 0 -37 -28 -67 -62z"/>
<path d="M14933 8396 c-352 -67 -528 -283 -572 -704 -18 -167 -15 -1339 4
-1487 60 -481 283 -695 738 -709 l98 -2 112 -150 c146 -196 339 -384 393 -384
7 0 22 54 40 144 l28 144 -80 79 c-75 73 -194 213 -194 227 0 3 25 20 56 38
190 107 302 303 346 603 19 129 19 1414 0 1535 -31 197 -82 335 -163 440 -82
106 -185 171 -334 211 -102 27 -362 36 -472 15z m378 -315 c95 -36 144 -99
185 -237 16 -53 18 -129 21 -808 3 -450 0 -787 -6 -845 -25 -250 -107 -355
-296 -382 -94 -13 -212 0 -278 31 -92 43 -144 127 -173 278 -21 110 -21 1576
1 1686 34 178 103 261 245 293 80 18 231 10 301 -16z"/>
<path d="M24075 8399 c-345 -53 -516 -260 -570 -689 -22 -168 -21 -1340 0
-1503 36 -277 137 -486 284 -589 132 -92 351 -138 564 -118 304 29 467 153
558 426 42 123 59 264 59 478 l0 186 -179 0 c-154 0 -180 -2 -185 -16 -3 -9
-6 -97 -6 -197 0 -314 -21 -415 -103 -495 -48 -47 -97 -67 -188 -77 -142 -15
-280 34 -336 118 -86 129 -97 265 -90 1160 6 746 10 791 81 894 65 95 144 128
301 127 137 -1 179 -14 240 -77 79 -81 88 -121 94 -412 l6 -240 183 -3 182 -2
0 187 c0 266 -30 422 -107 565 -38 71 -135 167 -208 205 -108 56 -192 74 -365
78 -85 2 -182 0 -215 -6z"/>
<path d="M16933 7313 c4 -1161 3 -1148 57 -1343 50 -179 161 -325 299 -395
167 -84 454 -104 676 -48 223 56 381 235 440 498 41 183 45 286 45 1348 l0
1017 -185 0 -185 0 0 -1003 c0 -1036 -4 -1150 -41 -1296 -38 -147 -84 -212
-181 -256 -56 -26 -75 -29 -168 -29 -99 -1 -109 1 -172 32 -96 47 -132 100
-176 261 l-27 96 -5 1095 -5 1095 -188 3 -188 2 4 -1077z"/>
<path d="M19540 6961 c0 -933 3 -1430 10 -1433 5 -1 91 -2 190 0 l180 3 0
1429 0 1430 -190 0 -190 0 0 -1429z"/>
<path d="M21037 8383 c-4 -3 -7 -646 -7 -1429 0 -1346 1 -1422 18 -1425 9 -2
86 -3 170 -1 l152 3 0 972 c0 613 4 966 10 957 5 -8 190 -446 412 -972 l403
-958 128 0 127 0 -2 1428 -3 1427 -160 0 -160 0 -5 -949 c-5 -893 -6 -947 -22
-914 -9 19 -76 174 -148 344 -73 170 -231 541 -352 824 -121 283 -238 557
-260 608 l-40 92 -127 0 c-70 0 -131 -3 -134 -7z"/>
<path d="M26007 8383 c-4 -3 -7 -647 -7 -1430 0 -1131 3 -1423 13 -1423 6 -1
251 -1 542 0 292 0 536 0 543 0 10 0 12 31 10 138 l-3 137 -355 5 -355 5 -3
505 c-1 278 0 515 3 528 l5 22 285 0 285 0 0 135 0 135 -287 2 -288 3 -3 455
c-1 250 0 465 3 477 l5 23 353 2 352 3 0 140 0 140 -546 3 c-300 1 -549 -1
-552 -5z"/>
<path d="M26768 4210 c-250 -30 -421 -161 -500 -382 -63 -179 -78 -360 -78
-993 0 -624 16 -806 86 -982 104 -261 285 -377 589 -378 119 0 137 2 209 29
104 38 188 115 243 221 21 41 41 75 45 75 3 0 9 -30 13 -67 4 -38 12 -104 18
-148 l12 -80 113 -3 112 -3 0 666 0 665 -335 0 -335 0 0 -130 0 -130 172 0
171 0 -6 -207 c-8 -285 -36 -411 -112 -501 -111 -131 -414 -128 -524 5 -42 50
-78 167 -91 293 -13 132 -13 1250 0 1395 14 145 39 221 96 284 59 65 104 83
235 89 141 6 202 -11 268 -76 36 -35 53 -61 66 -102 14 -47 33 -246 34 -372
l1 -38 170 0 170 0 0 103 c0 270 -62 484 -173 597 -140 142 -380 203 -669 170z"/>
<path d="M13835 4188 c-3 -7 -4 -614 -3 -1348 l3 -1335 183 -3 182 -2 0 635 0
636 152 -3 152 -3 42 -150 c23 -82 72 -258 109 -390 37 -132 96 -346 132 -475
35 -129 67 -238 69 -242 7 -10 341 -10 347 0 3 4 -35 147 -83 317 -186 657
-290 1025 -290 1028 0 2 28 16 62 32 186 86 278 311 265 648 -6 162 -23 239
-75 346 -89 183 -270 282 -566 310 -162 16 -675 15 -681 -1z m698 -269 c120
-21 210 -91 241 -188 45 -137 40 -390 -10 -501 -64 -142 -177 -194 -424 -195
l-135 0 -3 447 c-2 419 -1 447 15 451 32 7 254 -2 316 -14z"/>
<path d="M16160 2850 l0 -1350 523 2 522 3 3 119 c2 78 -1 123 -9 132 -9 11
-72 14 -340 14 l-329 0 0 495 0 495 269 0 c236 0 270 2 275 16 11 28 7 232 -5
239 -6 4 -128 8 -272 9 l-262 1 -3 447 -2 448 332 2 333 3 0 135 0 135 -517 3
-518 2 0 -1350z"/>
<path d="M18120 2850 l0 -1351 153 3 152 3 5 915 c4 701 8 910 17 895 10 -18
367 -861 645 -1525 62 -146 116 -271 121 -278 7 -9 40 -12 121 -10 l111 3 0
1345 0 1345 -150 0 -150 0 -5 -895 -5 -894 -374 874 c-205 481 -380 885 -387
898 -14 21 -21 22 -134 22 l-120 0 0 -1350z"/>
<path d="M20322 4063 l3 -138 225 -5 225 -5 2 -1195 c2 -657 3 -1201 3 -1207
0 -10 43 -13 180 -13 l180 0 2 1208 3 1207 220 5 220 5 0 135 0 135 -633 3
-633 2 3 -137z"/>
<path d="M22478 4190 c-1 -5 -2 -613 0 -1350 l2 -1340 180 0 180 0 0 1350 0
1350 -179 0 c-111 0 -181 -4 -183 -10z"/>
<path d="M23885 4188 c-3 -7 -4 -614 -3 -1348 l3 -1335 153 -3 152 -3 0 910
c0 860 3 971 26 904 4 -10 153 -364 332 -788 178 -423 348 -826 377 -895 l52
-125 116 -3 117 -3 0 1351 0 1350 -150 0 -150 0 0 -890 c0 -490 -4 -890 -8
-890 -5 0 -180 399 -389 888 l-380 887 -122 3 c-91 2 -123 -1 -126 -10z"/>
</g>
</svg>
